<svg width="24" height="24" viewBox="0 0 24 24" fill="none" xmlns="http://www.w3.org/2000/svg">
  <path d="M12 0C5.37188 0 0 5.37188 0 12C0 18.6281 5.37188 24 12 24C18.6281 24 24 18.6281 24 12C24 5.37188 18.6281 0 12 0ZM12 3.6C13.9875 3.6 15.6 5.2125 15.6 7.2C15.6 9.1875 13.9875 10.8 12 10.8C10.0125 10.8 8.4 9.1875 8.4 7.2C8.4 5.2125 10.0125 3.6 12 3.6ZM12 20.64C9 20.64 6.3375 19.2 4.8 16.98C4.83751 14.49 9.6 13.12 12 13.12C14.3906 13.12 19.1625 14.49 19.2 16.98C17.6625 19.2 15 20.64 12 20.64Z" fill="#EE8208"/>
</svg> 